<svg width="173" height="95" viewBox="0 0 173 95" fill="none" xmlns="http://www.w3.org/2000/svg">
<path d="M12.3727 19.8873C13.1796 14.5533 17.574 10.4899 22.9547 10.1025L139.562 1.70592C144.875 1.32334 149.76 4.62693 151.383 9.70052L166.668 57.4826C168.852 64.3115 164.347 71.4586 157.244 72.4324L16.4745 91.732C8.8398 92.7787 2.34368 86.1918 3.49618 78.5724L12.3727 19.8873Z" stroke="#41EAD4" stroke-width="2"/>
<path d="M44.9193 49.8347L42.1473 44.9387H40.9593V49.8347H38.4393V37.2707H43.1553C44.1273 37.2707 44.9553 37.4447 45.6393 37.7927C46.3233 38.1287 46.8333 38.5907 47.1693 39.1787C47.5173 39.7547 47.6913 40.4027 47.6913 41.1227C47.6913 41.9507 47.4513 42.7007 46.9713 43.3727C46.4913 44.0327 45.7773 44.4887 44.8293 44.7407L47.8353 49.8347H44.9193ZM40.9593 43.0487H43.0653C43.7493 43.0487 44.2593 42.8867 44.5953 42.5627C44.9313 42.2267 45.0993 41.7647 45.0993 41.1767C45.0993 40.6007 44.9313 40.1567 44.5953 39.8447C44.2593 39.5207 43.7493 39.3587 43.0653 39.3587H40.9593V43.0487ZM59.2405 44.6327C59.2405 44.9927 59.2165 45.3167 59.1685 45.6047H51.8785C51.9385 46.3247 52.1905 46.8887 52.6345 47.2967C53.0785 47.7047 53.6245 47.9087 54.2725 47.9087C55.2085 47.9087 55.8745 47.5067 56.2705 46.7027H58.9885C58.7005 47.6627 58.1485 48.4547 57.3325 49.0787C56.5165 49.6907 55.5145 49.9967 54.3265 49.9967C53.3665 49.9967 52.5025 49.7867 51.7345 49.3667C50.9785 48.9347 50.3845 48.3287 49.9525 47.5487C49.5325 46.7687 49.3225 45.8687 49.3225 44.8487C49.3225 43.8167 49.5325 42.9107 49.9525 42.1307C50.3725 41.3507 50.9605 40.7507 51.7165 40.3307C52.4725 39.9107 53.3425 39.7007 54.3265 39.7007C55.2745 39.7007 56.1205 39.9047 56.8645 40.3127C57.6205 40.7207 58.2025 41.3027 58.6105 42.0587C59.0305 42.8027 59.2405 43.6607 59.2405 44.6327ZM56.6305 43.9127C56.6185 43.2647 56.3845 42.7487 55.9285 42.3647C55.4725 41.9687 54.9145 41.7707 54.2545 41.7707C53.6305 41.7707 53.1025 41.9627 52.6705 42.3467C52.2505 42.7187 51.9925 43.2407 51.8965 43.9127H56.6305ZM64.9859 39.7007C65.7299 39.7007 66.3839 39.8507 66.9479 40.1507C67.5119 40.4387 67.9559 40.8167 68.2799 41.2847V39.8627H70.8179V49.9067C70.8179 50.8307 70.6319 51.6527 70.2599 52.3727C69.8879 53.1047 69.3299 53.6807 68.5859 54.1007C67.8419 54.5327 66.9419 54.7487 65.8859 54.7487C64.4699 54.7487 63.3059 54.4187 62.3939 53.7587C61.4939 53.0987 60.9839 52.1987 60.8639 51.0587H63.3659C63.4979 51.5147 63.7799 51.8747 64.2119 52.1387C64.6559 52.4147 65.1899 52.5527 65.8139 52.5527C66.5459 52.5527 67.1399 52.3307 67.5959 51.8867C68.0519 51.4547 68.2799 50.7947 68.2799 49.9067V48.3587C67.9559 48.8267 67.5059 49.2167 66.9299 49.5287C66.3659 49.8407 65.7179 49.9967 64.9859 49.9967C64.1459 49.9967 63.3779 49.7807 62.6819 49.3487C61.9859 48.9167 61.4339 48.3107 61.0259 47.5307C60.6299 46.7387 60.4319 45.8327 60.4319 44.8127C60.4319 43.8047 60.6299 42.9107 61.0259 42.1307C61.4339 41.3507 61.9799 40.7507 62.6639 40.3307C63.3599 39.9107 64.1339 39.7007 64.9859 39.7007ZM68.2799 44.8487C68.2799 44.2367 68.1599 43.7147 67.9199 43.2827C67.6799 42.8387 67.3559 42.5027 66.9479 42.2747C66.5399 42.0347 66.1019 41.9147 65.6339 41.9147C65.1659 41.9147 64.7339 42.0287 64.3379 42.2567C63.9419 42.4847 63.6179 42.8207 63.3659 43.2647C63.1259 43.6967 63.0059 44.2127 63.0059 44.8127C63.0059 45.4127 63.1259 45.9407 63.3659 46.3967C63.6179 46.8407 63.9419 47.1827 64.3379 47.4227C64.7459 47.6627 65.1779 47.7827 65.6339 47.7827C66.1019 47.7827 66.5399 47.6687 66.9479 47.4407C67.3559 47.2007 67.6799 46.8647 67.9199 46.4327C68.1599 45.9887 68.2799 45.4607 68.2799 44.8487ZM74.5571 38.6747C74.1131 38.6747 73.7411 38.5367 73.4411 38.2607C73.1531 37.9727 73.0091 37.6187 73.0091 37.1987C73.0091 36.7787 73.1531 36.4307 73.4411 36.1547C73.7411 35.8667 74.1131 35.7227 74.5571 35.7227C75.0011 35.7227 75.3671 35.8667 75.6551 36.1547C75.9551 36.4307 76.1051 36.7787 76.1051 37.1987C76.1051 37.6187 75.9551 37.9727 75.6551 38.2607C75.3671 38.5367 75.0011 38.6747 74.5571 38.6747ZM75.7991 39.8627V49.8347H73.2791V39.8627H75.7991ZM82.1049 49.9967C81.2889 49.9967 80.5569 49.8527 79.9089 49.5647C79.2609 49.2647 78.7449 48.8627 78.3609 48.3587C77.9889 47.8547 77.7849 47.2967 77.7489 46.6847H80.2869C80.3349 47.0687 80.5209 47.3867 80.8449 47.6387C81.1809 47.8907 81.5949 48.0167 82.0869 48.0167C82.5669 48.0167 82.9389 47.9207 83.2029 47.7287C83.4789 47.5367 83.6169 47.2907 83.6169 46.9907C83.6169 46.6667 83.4489 46.4267 83.1129 46.2707C82.7889 46.1027 82.2669 45.9227 81.5469 45.7307C80.8029 45.5507 80.1909 45.3647 79.7109 45.1727C79.2429 44.9807 78.8349 44.6867 78.4869 44.2907C78.1509 43.8947 77.9829 43.3607 77.9829 42.6887C77.9829 42.1367 78.1389 41.6327 78.4509 41.1767C78.7749 40.7207 79.2309 40.3607 79.8189 40.0967C80.4189 39.8327 81.1209 39.7007 81.9249 39.7007C83.1129 39.7007 84.0609 40.0007 84.7689 40.6007C85.4769 41.1887 85.8669 41.9867 85.9389 42.9947H83.5269C83.4909 42.5987 83.3229 42.2867 83.0229 42.0587C82.7349 41.8187 82.3449 41.6987 81.8529 41.6987C81.3969 41.6987 81.0429 41.7827 80.7909 41.9507C80.5509 42.1187 80.4309 42.3527 80.4309 42.6527C80.4309 42.9887 80.5989 43.2467 80.9349 43.4267C81.2709 43.5947 81.7929 43.7687 82.5009 43.9487C83.2209 44.1287 83.8149 44.3147 84.2829 44.5067C84.7509 44.6987 85.1529 44.9987 85.4889 45.4067C85.8369 45.8027 86.0169 46.3307 86.0289 46.9907C86.0289 47.5667 85.8669 48.0827 85.5429 48.5387C85.2309 48.9947 84.7749 49.3547 84.1749 49.6187C83.5869 49.8707 82.8969 49.9967 82.1049 49.9967ZM91.0315 41.9327V46.7567C91.0315 47.0927 91.1095 47.3387 91.2655 47.4947C91.4335 47.6387 91.7095 47.7107 92.0935 47.7107H93.2635V49.8347H91.6795C89.5555 49.8347 88.4935 48.8027 88.4935 46.7387V41.9327H87.3055V39.8627H88.4935V37.3967H91.0315V39.8627H93.2635V41.9327H91.0315ZM104.346 44.6327C104.346 44.9927 104.322 45.3167 104.274 45.6047H96.984C97.044 46.3247 97.296 46.8887 97.74 47.2967C98.184 47.7047 98.73 47.9087 99.378 47.9087C100.314 47.9087 100.98 47.5067 101.376 46.7027H104.094C103.806 47.6627 103.254 48.4547 102.438 49.0787C101.622 49.6907 100.62 49.9967 99.432 49.9967C98.472 49.9967 97.608 49.7867 96.84 49.3667C96.084 48.9347 95.49 48.3287 95.058 47.5487C94.638 46.7687 94.428 45.8687 94.428 44.8487C94.428 43.8167 94.638 42.9107 95.058 42.1307C95.478 41.3507 96.066 40.7507 96.822 40.3307C97.578 39.9107 98.448 39.7007 99.432 39.7007C100.38 39.7007 101.226 39.9047 101.97 40.3127C102.726 40.7207 103.308 41.3027 103.716 42.0587C104.136 42.8027 104.346 43.6607 104.346 44.6327ZM101.736 43.9127C101.724 43.2647 101.49 42.7487 101.034 42.3647C100.578 41.9687 100.02 41.7707 99.36 41.7707C98.736 41.7707 98.208 41.9627 97.776 42.3467C97.356 42.7187 97.098 43.2407 97.002 43.9127H101.736ZM108.705 41.4107C109.029 40.8827 109.449 40.4687 109.965 40.1687C110.493 39.8687 111.093 39.7187 111.765 39.7187V42.3647H111.099C110.307 42.3647 109.707 42.5507 109.299 42.9227C108.903 43.2947 108.705 43.9427 108.705 44.8667V49.8347H106.185V39.8627H108.705V41.4107Z" fill="white"/>
</svg>
