<svg width="289" height="253" viewBox="0 0 289 253" fill="none" xmlns="http://www.w3.org/2000/svg">
<ellipse cx="7.22526" cy="137.901" rx="6.24723" ry="5.48094" fill="#41EAD4"/>
<ellipse cx="32.214" cy="137.901" rx="6.24723" ry="5.48094" fill="#41EAD4"/>
<ellipse cx="57.2033" cy="137.901" rx="6.24723" ry="5.48094" fill="#41EAD4"/>
<ellipse cx="82.1921" cy="137.901" rx="6.24723" ry="5.48094" fill="#41EAD4"/>
<ellipse cx="107.181" cy="137.901" rx="6.24723" ry="5.48094" fill="#41EAD4"/>
<ellipse cx="132.17" cy="137.901" rx="6.24723" ry="5.48094" fill="#41EAD4"/>
<ellipse cx="7.22526" cy="159.825" rx="6.24723" ry="5.48094" fill="#41EAD4"/>
<ellipse cx="32.214" cy="159.825" rx="6.24723" ry="5.48094" fill="#41EAD4"/>
<ellipse cx="57.2033" cy="159.825" rx="6.24723" ry="5.48094" fill="#41EAD4"/>
<ellipse cx="82.1921" cy="159.825" rx="6.24723" ry="5.48094" fill="#41EAD4"/>
<ellipse cx="107.181" cy="159.825" rx="6.24723" ry="5.48094" fill="#41EAD4"/>
<ellipse cx="132.17" cy="159.825" rx="6.24723" ry="5.48094" fill="#41EAD4"/>
<ellipse cx="7.22526" cy="181.749" rx="6.24723" ry="5.48094" fill="#41EAD4"/>
<ellipse cx="32.214" cy="181.749" rx="6.24723" ry="5.48094" fill="#41EAD4"/>
<ellipse cx="57.2033" cy="181.749" rx="6.24723" ry="5.48094" fill="#41EAD4"/>
<ellipse cx="82.1921" cy="181.749" rx="6.24723" ry="5.48094" fill="#41EAD4"/>
<ellipse cx="107.181" cy="181.749" rx="6.24723" ry="5.48094" fill="#41EAD4"/>
<ellipse cx="132.17" cy="181.749" rx="6.24723" ry="5.48094" fill="#41EAD4"/>
<ellipse cx="7.22526" cy="203.672" rx="6.24723" ry="5.48094" fill="#41EAD4"/>
<ellipse cx="32.214" cy="203.672" rx="6.24723" ry="5.48094" fill="#41EAD4"/>
<ellipse cx="57.2033" cy="203.672" rx="6.24723" ry="5.48094" fill="#41EAD4"/>
<ellipse cx="82.1921" cy="203.672" rx="6.24723" ry="5.48094" fill="#41EAD4"/>
<ellipse cx="107.181" cy="203.672" rx="6.24723" ry="5.48094" fill="#41EAD4"/>
<ellipse cx="132.17" cy="203.672" rx="6.24723" ry="5.48094" fill="#41EAD4"/>
<ellipse cx="7.22526" cy="225.596" rx="6.24723" ry="5.48094" fill="#41EAD4"/>
<ellipse cx="32.214" cy="225.596" rx="6.24723" ry="5.48094" fill="#41EAD4"/>
<ellipse cx="57.2033" cy="225.596" rx="6.24723" ry="5.48094" fill="#41EAD4"/>
<ellipse cx="82.1921" cy="225.596" rx="6.24723" ry="5.48094" fill="#41EAD4"/>
<ellipse cx="107.181" cy="225.596" rx="6.24723" ry="5.48094" fill="#41EAD4"/>
<ellipse cx="132.17" cy="225.596" rx="6.24723" ry="5.48094" fill="#41EAD4"/>
<ellipse cx="7.22526" cy="247.52" rx="6.24723" ry="5.48094" fill="#41EAD4"/>
<ellipse cx="32.214" cy="247.52" rx="6.24723" ry="5.48094" fill="#41EAD4"/>
<ellipse cx="57.2033" cy="247.52" rx="6.24723" ry="5.48094" fill="#41EAD4"/>
<ellipse cx="82.1921" cy="247.52" rx="6.24723" ry="5.48094" fill="#41EAD4"/>
<ellipse cx="107.181" cy="247.52" rx="6.24723" ry="5.48094" fill="#41EAD4"/>
<ellipse cx="132.17" cy="247.52" rx="6.24723" ry="5.48094" fill="#41EAD4"/>
<ellipse cx="7.22526" cy="6.3579" rx="6.24723" ry="5.48094" fill="#41EAD4"/>
<ellipse cx="32.214" cy="6.3579" rx="6.24723" ry="5.48094" fill="#41EAD4"/>
<ellipse cx="57.2033" cy="6.3579" rx="6.24723" ry="5.48094" fill="#41EAD4"/>
<ellipse cx="82.1921" cy="6.3579" rx="6.24723" ry="5.48094" fill="#41EAD4"/>
<ellipse cx="107.181" cy="6.3579" rx="6.24723" ry="5.48094" fill="#41EAD4"/>
<ellipse cx="132.17" cy="6.3579" rx="6.24723" ry="5.48094" fill="#41EAD4"/>
<ellipse cx="7.22526" cy="28.2817" rx="6.24723" ry="5.48094" fill="#41EAD4"/>
<ellipse cx="32.214" cy="28.2817" rx="6.24723" ry="5.48094" fill="#41EAD4"/>
<ellipse cx="57.2033" cy="28.2817" rx="6.24723" ry="5.48094" fill="#41EAD4"/>
<ellipse cx="82.1921" cy="28.2817" rx="6.24723" ry="5.48094" fill="#41EAD4"/>
<ellipse cx="107.181" cy="28.2817" rx="6.24723" ry="5.48094" fill="#41EAD4"/>
<ellipse cx="132.17" cy="28.2817" rx="6.24723" ry="5.48094" fill="#41EAD4"/>
<ellipse cx="7.22526" cy="50.2056" rx="6.24723" ry="5.48094" fill="#41EAD4"/>
<ellipse cx="32.214" cy="50.2056" rx="6.24723" ry="5.48094" fill="#41EAD4"/>
<ellipse cx="57.2033" cy="50.2056" rx="6.24723" ry="5.48094" fill="#41EAD4"/>
<ellipse cx="82.1921" cy="50.2056" rx="6.24723" ry="5.48094" fill="#41EAD4"/>
<ellipse cx="107.181" cy="50.2056" rx="6.24723" ry="5.48094" fill="#41EAD4"/>
<ellipse cx="132.17" cy="50.2056" rx="6.24723" ry="5.48094" fill="#41EAD4"/>
<ellipse cx="7.22526" cy="72.1294" rx="6.24723" ry="5.48094" fill="#41EAD4"/>
<ellipse cx="32.214" cy="72.1294" rx="6.24723" ry="5.48094" fill="#41EAD4"/>
<ellipse cx="57.2033" cy="72.1294" rx="6.24723" ry="5.48094" fill="#41EAD4"/>
<ellipse cx="82.1921" cy="72.1294" rx="6.24723" ry="5.48094" fill="#41EAD4"/>
<ellipse cx="107.181" cy="72.1294" rx="6.24723" ry="5.48094" fill="#41EAD4"/>
<ellipse cx="132.17" cy="72.1294" rx="6.24723" ry="5.48094" fill="#41EAD4"/>
<ellipse cx="7.22526" cy="94.0532" rx="6.24723" ry="5.48094" fill="#41EAD4"/>
<ellipse cx="32.214" cy="94.0532" rx="6.24723" ry="5.48094" fill="#41EAD4"/>
<ellipse cx="57.2033" cy="94.0532" rx="6.24723" ry="5.48094" fill="#41EAD4"/>
<ellipse cx="82.1921" cy="94.0532" rx="6.24723" ry="5.48094" fill="#41EAD4"/>
<ellipse cx="107.181" cy="94.0532" rx="6.24723" ry="5.48094" fill="#41EAD4"/>
<ellipse cx="132.17" cy="94.0532" rx="6.24723" ry="5.48094" fill="#41EAD4"/>
<ellipse cx="7.22526" cy="115.977" rx="6.24723" ry="5.48094" fill="#41EAD4"/>
<ellipse cx="32.214" cy="115.977" rx="6.24723" ry="5.48094" fill="#41EAD4"/>
<ellipse cx="57.2033" cy="115.977" rx="6.24723" ry="5.48094" fill="#41EAD4"/>
<ellipse cx="82.1921" cy="115.977" rx="6.24723" ry="5.48094" fill="#41EAD4"/>
<ellipse cx="107.181" cy="115.977" rx="6.24723" ry="5.48094" fill="#41EAD4"/>
<ellipse cx="132.17" cy="115.977" rx="6.24723" ry="5.48094" fill="#41EAD4"/>
<ellipse cx="157.159" cy="137.901" rx="6.24723" ry="5.48094" fill="#41EAD4"/>
<ellipse cx="182.148" cy="137.901" rx="6.24723" ry="5.48094" fill="#41EAD4"/>
<ellipse cx="207.137" cy="137.901" rx="6.24723" ry="5.48094" fill="#41EAD4"/>
<ellipse cx="232.126" cy="137.901" rx="6.24723" ry="5.48094" fill="#41EAD4"/>
<ellipse cx="257.114" cy="137.901" rx="6.24723" ry="5.48094" fill="#41EAD4"/>
<ellipse cx="282.104" cy="137.901" rx="6.24723" ry="5.48094" fill="#41EAD4"/>
<ellipse cx="157.159" cy="159.825" rx="6.24723" ry="5.48094" fill="#41EAD4"/>
<ellipse cx="182.148" cy="159.825" rx="6.24723" ry="5.48094" fill="#41EAD4"/>
<ellipse cx="207.137" cy="159.825" rx="6.24723" ry="5.48094" fill="#41EAD4"/>
<ellipse cx="232.126" cy="159.825" rx="6.24723" ry="5.48094" fill="#41EAD4"/>
<ellipse cx="257.114" cy="159.825" rx="6.24723" ry="5.48094" fill="#41EAD4"/>
<ellipse cx="282.104" cy="159.825" rx="6.24723" ry="5.48094" fill="#41EAD4"/>
<ellipse cx="157.159" cy="181.749" rx="6.24723" ry="5.48094" fill="#41EAD4"/>
<ellipse cx="182.148" cy="181.749" rx="6.24723" ry="5.48094" fill="#41EAD4"/>
<ellipse cx="207.137" cy="181.749" rx="6.24723" ry="5.48094" fill="#41EAD4"/>
<ellipse cx="232.126" cy="181.749" rx="6.24723" ry="5.48094" fill="#41EAD4"/>
<ellipse cx="257.114" cy="181.749" rx="6.24723" ry="5.48094" fill="#41EAD4"/>
<ellipse cx="282.104" cy="181.749" rx="6.24723" ry="5.48094" fill="#41EAD4"/>
<ellipse cx="157.159" cy="203.672" rx="6.24723" ry="5.48094" fill="#41EAD4"/>
<ellipse cx="182.148" cy="203.672" rx="6.24723" ry="5.48094" fill="#41EAD4"/>
<ellipse cx="207.137" cy="203.672" rx="6.24723" ry="5.48094" fill="#41EAD4"/>
<ellipse cx="232.126" cy="203.672" rx="6.24723" ry="5.48094" fill="#41EAD4"/>
<ellipse cx="257.114" cy="203.672" rx="6.24723" ry="5.48094" fill="#41EAD4"/>
<ellipse cx="282.104" cy="203.672" rx="6.24723" ry="5.48094" fill="#41EAD4"/>
<ellipse cx="157.159" cy="225.596" rx="6.24723" ry="5.48094" fill="#41EAD4"/>
<ellipse cx="182.148" cy="225.596" rx="6.24723" ry="5.48094" fill="#41EAD4"/>
<ellipse cx="207.137" cy="225.596" rx="6.24723" ry="5.48094" fill="#41EAD4"/>
<ellipse cx="232.126" cy="225.596" rx="6.24723" ry="5.48094" fill="#41EAD4"/>
<ellipse cx="257.114" cy="225.596" rx="6.24723" ry="5.48094" fill="#41EAD4"/>
<ellipse cx="282.104" cy="225.596" rx="6.24723" ry="5.48094" fill="#41EAD4"/>
<ellipse cx="157.159" cy="247.52" rx="6.24723" ry="5.48094" fill="#41EAD4"/>
<ellipse cx="182.148" cy="247.52" rx="6.24723" ry="5.48094" fill="#41EAD4"/>
<ellipse cx="207.137" cy="247.52" rx="6.24723" ry="5.48094" fill="#41EAD4"/>
<ellipse cx="232.126" cy="247.52" rx="6.24723" ry="5.48094" fill="#41EAD4"/>
<ellipse cx="257.114" cy="247.52" rx="6.24723" ry="5.48094" fill="#41EAD4"/>
<ellipse cx="282.104" cy="247.52" rx="6.24723" ry="5.48094" fill="#41EAD4"/>
</svg>
